DBRep_DrawableShape

CASCADE Topology V1, (c) Matra-Datavision
Locations 20
1
              1               0               0               0 
              0               1               0               0 
              0               0               1               0 
1
              1               0               0               0 
              0               1               0               0 
              0               0               1               0 
1
              1               0               0               0 
              0               1               0               0 
              0               0               1               0 
2  1 1 2 1 3 1 0
2  1 -1 0
2  2 -1 1 -1 0
2  3 -1 2 -1 1 -1 0
1
              1               0               0            1800 
              0               1               0               0 
              0               0               1             200 
2  8 1 2 1 3 1 0
2  1 1 8 -1 0
2  3 -1 2 -1 8 -1 0
2  8 -1 0
2  2 -1 8 -1 0
1
              1               0               0               0 
              0               1               0               0 
              0               0               1               0 
1
              1               0               0            1600 
              0               1               0           -1000 
              0               0               1            1000 
2  14 1 15 1 3 1 0
2  1 1 2 1 15 -1 14 -1 0
2  15 -1 14 -1 0
2  3 -1 15 -1 14 -1 0
2  2 1 3 1 0
Curve2ds 64
1 0 0 1 0 
1 0 0 1 0 
1 3100 0 0 -1 
1 0 0 0 1 
1 0 -5100 1 0 
1 0 0 1 0 
1 0 0 0 -1 
1 0 0 0 1 
1 0 0 0 1 
1 0 0 1 0 
1 0 0 1 0 
1 0 4700 1 0 
1 3100 0 0 1 
1 0 0 1 0 
1 0 0 1 0 
1 0 0 1 0 
1 200 1800 1 0 
1 0 0 0 1 
1 0 0 1 0 
1 200 1800 0 1 
1 600 0 0 1 
1 0 0 1 0 
1 800 1800 0 1 
1 0 0 1 0 
1 0 1100 1 0 
1 200 2900 1 0 
1 1500 0 0 1 
1 0 1000 1 0 
1 2500 1600 0 1 
1 0 -1000 1 0 
1 0 1500 1 0 
1 1000 3100 1 0 
1 0 0 0 1 
1 0 1000 1 0 
1 1000 1600 0 1 
1 0 -1000 1 0 
1 0 0 1 0 
1 1000 1600 1 0 
1 3100 0 0 1 
1 0 5100 1 0 
1 3100 0 0 -1 
1 4700 0 0 1 
1 0 0 0 1 
1 0 5100 1 0 
1 0 -5100 1 0 
1 0 4700 1 0 
1 0 0 0 -1 
1 4700 0 0 1 
1 600 0 0 -1 
1 0 0 0 1 
1 0 -150 1 0 
1 0 0 1 0 
1 0 0 0 -1 
1 0 0 0 1 
1 600 0 0 1 
1 0 150 1 0 
1 600 0 0 -1 
1 1100 0 0 1 
1 0 -150 1 0 
1 0 1100 1 0 
1 0 0 0 -1 
1 1100 0 0 1 
1 0 0 0 1 
1 0 150 1 0 
Curves 28
1 0 0 0 0 0 1 
1 0 0 3100 -0 1 0 
1 0 5100 0 0 0 1 
1 0 0 0 -0 1 0 
1 0 0 0 1 0 -0 
1 4700 0 0 0 0 1 
1 0 0 3100 1 0 -0 
1 0 0 0 0 0 1 
1 0 0 0 1 0 -0 
1 0 0 600 1 0 -0 
1 1100 0 0 0 0 1 
1 0 1000 1500 1 0 -0 
1 1500 1000 0 0 0 1 
1 0 1000 0 1 0 -0 
1 0 1000 0 0 0 1 
1 0 5100 3100 1 0 -0 
1 4700 0 3100 -0 1 0 
1 0 5100 0 1 0 -0 
1 4700 5100 0 0 0 1 
1 4700 0 0 -0 1 0 
1 0 0 600 -0 1 0 
1 0 150 0 0 0 1 
1 0 0 0 -0 1 0 
1 0 150 600 1 0 -0 
1 1100 0 600 -0 1 0 
1 1100 150 0 0 0 1 
1 1100 0 0 -0 1 0 
1 0 150 0 1 0 -0 
Polygon3D 0
PolygonOnTriangulations 92
2 1 2 
p 8.60000012814999 1 0 3100 
2 1 3 
p 8.60000012814999 1 0 3100 
2 1 3 
p 8.60000012814999 1 0 3100 
2 1 3 
p 8.60000012814999 1 0 3100 
2 1 3 
p 8.60000012814999 1 0 3100 
2 2 4 
p 8.60000012814999 1 0 5100 
2 1 2 
p 8.60000012814999 1 0 5100 
2 3 4 
p 8.60000012814999 1 0 3100 
2 1 3 
p 8.60000012814999 1 0 3100 
2 1 3 
p 8.60000012814999 1 0 5100 
2 1 2 
p 8.60000012814999 1 0 5100 
2 1 2 
p 8.60000012814999 1 0 4700 
2 1 3 
p 8.60000012814999 1 0 4700 
2 1 2 
p 8.60000012814999 1 0 4700 
2 1 2 
p 8.60000012814999 1 0 4700 
2 1 2 
p 8.60000012814999 1 0 4700 
2 1 2 
p 8.60000012814999 1 0 3100 
2 2 4 
p 8.60000012814999 1 0 3100 
2 2 4 
p 8.60000012814999 1 0 3100 
2 2 4 
p 8.60000012814999 1 0 3100 
2 2 4 
p 8.60000012814999 1 0 3100 
2 3 4 
p 8.60000012814999 1 0 4700 
2 1 3 
p 8.60000012814999 1 0 4700 
2 3 4 
p 8.60000012814999 1 0 4700 
2 3 4 
p 8.60000012814999 1 0 4700 
2 3 4 
p 8.60000012814999 1 0 4700 
2 5 6 
p 8.60000012814999 1 0 600 
2 1 2 
p 8.60000012814999 1 0 600 
2 1 3 
p 8.60000012814999 1 0 600 
2 5 7 
p 8.60000012814999 1 0 1100 
2 1 3 
p 8.60000012814999 1 0 1100 
2 1 2 
p 8.60000012814999 1 0 1100 
2 6 8 
p 8.60000012814999 1 0 1100 
2 1 3 
p 8.60000012814999 1 0 1100 
2 3 4 
p 8.60000012814999 1 0 1100 
2 6 8 
p 8.60000012814999 1 0 1100 
2 6 8 
p 8.60000012814999 1 0 1100 
2 3 4 
p 8.60000012814999 1 0 1100 
2 7 8 
p 8.60000012814999 1 0 600 
2 1 2 
p 8.60000012814999 1 0 600 
2 2 4 
p 8.60000012814999 1 0 600 
2 3 4 
p 2.6666667064031 1 0 1500 
2 2 4 
p 2.6666667064031 1 0 1500 
2 9 10 
p 2.6666667064031 1 0 1500 
2 9 10 
p 2.6666667064031 1 0 1500 
2 3 4 
p 2.6666667064031 1 0 1500 
2 2 4 
p 2.6666667064031 1 0 1500 
2 12 10 
p 2.6666667064031 1 0 1500 
2 12 10 
p 2.6666667064031 1 0 1500 
2 1 2 
p 2.6666667064031 1 0 1500 
2 2 4 
p 2.6666667064031 1 0 1500 
2 11 12 
p 2.6666667064031 1 0 1500 
2 11 12 
p 2.6666667064031 1 0 1500 
2 3 4 
p 2.6666667064031 1 0 1500 
2 1 3 
p 2.6666667064031 1 0 1500 
2 11 9 
p 2.6666667064031 1 0 1500 
2 11 9 
p 2.6666667064031 1 0 1500 
2 3 4 
p 8.60000012814999 1 0 4700 
2 2 4 
p 8.60000012814999 1 0 4700 
2 2 4 
p 8.60000012814999 1 0 5100 
2 3 4 
p 8.60000012814999 1 0 5100 
2 1 2 
p 8.60000012814999 1 0 4700 
2 2 4 
p 8.60000012814999 1 0 4700 
2 3 4 
p 8.60000012814999 1 0 3100 
2 2 4 
p 8.60000012814999 1 0 3100 
2 1 3 
p 8.60000012814999 1 0 5100 
2 3 4 
p 8.60000012814999 1 0 5100 
2 2 4 
p 8.60000012814999 1 0 150 
2 1 2 
p 8.60000012814999 1 0 150 
2 2 4 
p 8.60000012814999 1 0 150 
2 3 4 
p 1.23333335171143 1 0 600 
2 1 3 
p 1.23333335171143 1 0 600 
2 3 4 
p 1.23333335171143 1 0 600 
2 3 4 
p 1.23333335171143 1 0 600 
2 1 3 
p 8.60000012814999 1 0 150 
2 1 2 
p 8.60000012814999 1 0 150 
2 3 4 
p 1.23333335171143 1 0 1100 
2 2 4 
p 1.23333335171143 1 0 1100 
2 2 4 
p 1.23333335171143 1 0 1100 
2 3 4 
p 8.60000012814999 1 0 150 
2 2 4 
p 8.60000012814999 1 0 150 
2 2 4 
p 8.60000012814999 1 0 150 
2 3 4 
p 1.23333335171143 1 0 600 
2 2 4 
p 1.23333335171143 1 0 600 
2 3 4 
p 1.23333335171143 1 0 600 
2 3 4 
p 1.23333335171143 1 0 600 
2 1 3 
p 8.60000012814999 1 0 150 
2 3 4 
p 8.60000012814999 1 0 150 
2 1 2 
p 1.23333335171143 1 0 1100 
2 2 4 
p 1.23333335171143 1 0 1100 
2 2 4 
p 1.23333335171143 1 0 1100 
2 2 4 
p 1.23333335171143 1 0 1100 
Surfaces 17
1 0 0 0 1 0 -0 0 0 1 0 -1 0 
1 0 0 0 -0 1 0 0 0 1 1 0 -0 
1 0 0 3100 0 0 1 1 0 -0 -0 1 0 
1 0 5100 0 -0 1 0 0 0 1 1 0 -0 
1 0 0 0 0 0 1 1 0 -0 -0 1 0 
1 4700 0 0 1 0 -0 0 0 1 0 -1 0 
1 0 0 0 1 0 -0 0 0 1 0 -1 0 
1 0 0 0 -0 1 0 0 0 1 1 0 -0 
1 0 0 0 0 0 1 1 0 -0 -0 1 0 
1 0 0 600 0 0 1 1 0 -0 -0 1 0 
1 1100 0 0 1 0 -0 0 0 1 0 -1 0 
1 0 1000 0 -0 1 0 0 0 1 1 0 -0 
1 0 0 1500 0 0 1 1 0 -0 -0 1 0 
1 1500 0 0 1 0 -0 0 0 1 0 -1 0 
1 0 0 0 0 0 1 1 0 -0 -0 1 0 
1 0 0 0 1 0 -0 0 0 1 0 -1 0 
1 0 150 0 -0 1 0 0 0 1 1 0 -0 
Triangulations 28
4 2 1 8.60000012814999
0 0 0 0 0 3100 0 5100 0 0 5100 3100 0 0 3100 0 0 -5100 3100 -5100 2 1 3 2 3 4 
4 2 1 8.60000012814999
0 0 0 4700 0 0 0 0 3100 4700 0 3100 0 0 0 4700 3100 0 3100 4700 2 1 3 4 2 3 
8 8 1 8.60000012814999
0 0 0 4700 0 0 0 0 3100 4700 0 3100 1800 0 200 1800 0 800 2900 0 200 2900 0 800 0 0 0 4700 3100 0 3100 4700 200 1800 800 1800 200 2900 800 2900 6 5 1 3 6 1 2 7 8 4 8 6 4 6 3 4 2 8 2 1 5 2 5 7 
12 14 1 8.60000012814999
0 0 0 4700 0 0 0 0 3100 4700 0 3100 1800 0 200 1800 0 800 2900 0 200 2900 0 800 1600 0 2500 3100 0 2500 1600 0 1000 3100 0 1000 0 0 0 4700 3100 0 3100 4700 200 1800 800 1800 200 2900 800 2900 2500 1600 2500 3100 1000 1600 1000 3100 11 6 5 11 5 1 3 11 1 8 6 11 9 11 3 12 7 8 12 8 11 2 7 12 4 10 9 4 12 10 4 9 3 4 2 12 2 1 5 2 5 7 
12 14 1 8.60000012814999
0 0 0 4700 0 0 0 0 3100 4700 0 3100 1800 0 200 1800 0 800 2900 0 200 2900 0 800 1600 0 2500 3100 0 2500 1600 0 1000 3100 0 1000 0 0 0 4700 3100 0 3100 4700 200 1800 800 1800 200 2900 800 2900 2500 1600 2500 3100 1000 1600 1000 3100 11 6 5 11 5 1 3 11 1 8 6 11 9 11 3 12 7 8 12 8 11 2 7 12 4 10 9 4 12 10 4 9 3 4 2 12 2 1 5 2 5 7 
4 2 1 8.60000012814999
0 0 3100 0 5100 3100 4700 0 3100 4700 5100 3100 0 0 0 5100 4700 0 4700 5100 4 2 1 4 1 3 
4 2 1 8.60000012814999
0 5100 0 4700 5100 0 0 5100 3100 4700 5100 3100 0 0 0 4700 3100 0 3100 4700 2 1 3 4 2 3 
4 2 1 8.60000012814999
0 0 0 0 5100 0 4700 0 0 4700 5100 0 0 0 0 5100 4700 0 4700 5100 4 2 1 4 1 3 
4 2 1 8.60000012814999
4700 0 0 4700 0 3100 4700 5100 0 4700 5100 3100 0 0 3100 0 0 -5100 3100 -5100 2 1 3 2 3 4 
4 2 1 8.60000012814999
1800 0 200 1800 0 800 1800 150 200 1800 150 800 0 0 600 0 0 -150 600 -150 2 1 3 2 3 4 
4 2 1 8.60000012814999
1800 0 200 2900 0 200 1800 0 800 2900 0 800 200 1800 200 2900 800 1800 800 2900 4 2 1 4 1 3 
4 2 1 8.60000012814999
1800 0 200 1800 150 200 2900 0 200 2900 150 200 0 0 0 150 1100 0 1100 150 3 2 1 4 2 3 
4 2 1 8.60000012814999
1800 0 800 1800 150 800 2900 0 800 2900 150 800 0 0 0 150 1100 0 1100 150 3 2 1 4 2 3 
4 2 1 8.60000012814999
1800 0 200 2900 0 200 1800 0 800 2900 0 800 200 1800 200 2900 800 1800 800 2900 4 2 1 4 1 3 
4 2 1 8.60000012814999
2900 0 200 2900 0 800 2900 150 200 2900 150 800 0 0 600 0 0 -150 600 -150 2 1 3 2 3 4 
4 2 1 2.6666667064031
0 1000 0 1500 1000 0 0 1000 1500 1500 1000 1500 0 0 0 1500 1500 0 1500 1500 3 2 1 4 2 3 
4 2 1 2.6666667064031
0 0 1500 0 1000 1500 1500 0 1500 1500 1000 1500 0 0 0 1000 1500 0 1500 1000 4 2 1 4 1 3 
4 2 1 2.6666667064031
1500 0 0 1500 0 1500 1500 1000 0 1500 1000 1500 0 0 1500 0 0 -1000 1500 -1000 2 1 3 2 3 4 
4 2 1 2.6666667064031
0 0 0 0 1000 0 1500 0 0 1500 1000 0 0 0 0 1000 1500 0 1500 1000 4 2 1 4 1 3 
4 2 1 2.6666667064031
0 0 0 0 0 1500 0 1000 0 0 1000 1500 0 0 1500 0 0 -1000 1500 -1000 2 1 3 2 3 4 
4 2 1 8.60000012814999
1800 0 200 1800 0 800 1800 150 200 1800 150 800 0 0 600 0 0 -150 600 -150 2 1 3 2 3 4 
4 2 1 1.23333335171143
0 0 0 0 0 600 0 150 0 0 150 600 0 0 600 0 0 -150 600 -150 2 1 3 2 3 4 
4 2 1 1.23333335171143
0 150 0 1100 150 0 0 150 600 1100 150 600 0 0 0 1100 600 0 600 1100 4 2 1 4 1 3 
4 2 1 1.23333335171143
0 0 600 0 150 600 1100 0 600 1100 150 600 0 0 0 150 1100 0 1100 150 3 2 1 4 2 3 
4 2 1 8.60000012814999
2900 0 200 2900 0 800 2900 150 200 2900 150 800 0 0 600 0 0 -150 600 -150 2 1 3 2 3 4 
4 2 1 1.23333335171143
1100 0 0 1100 0 600 1100 150 0 1100 150 600 0 0 600 0 0 -150 600 -150 2 1 3 2 3 4 
4 2 1 1.23333335171143
0 0 0 0 150 0 1100 0 0 1100 150 0 0 0 0 150 1100 0 1100 150 3 2 1 4 2 3 
4 2 1 8.60000012814999
1800 0 200 1800 150 200 2900 0 200 2900 150 200 0 0 0 150 1100 0 1100 150 3 2 1 4 2 3 

TShapes 82
Ve
1e-07
0 0 3100
0 0

0101101
*
Ve
1e-07
0 0 0
0 0

0101101
*
Ed
 1e-07 1 1 0
1  1 0 0 3100
2  1 1 0 0 3100
2  2 2 0 0 3100
6  1 1 0
6  2 2 0
6  3 3 5
6  4 4 6
6  5 5 7
0

0101000
-82 0 +81 0 *
Ve
1e-07
0 5100 3100
0 0

0101101
*
Ed
 1e-07 1 1 0
1  2 0 0 5100
2  3 1 0 0 5100
2  4 3 0 0 5100
6  6 1 0
6  7 6 0
0

0101000
-79 0 +82 0 *
Ve
1e-07
0 5100 0
0 0

0101101
*
Ed
 1e-07 1 1 0
1  3 0 0 3100
2  5 1 0 0 3100
2  6 4 0 0 3100
6  8 1 0
6  9 7 0
0

0101000
-79 0 +77 0 *
Ed
 1e-07 1 1 0
1  4 0 0 5100
2  7 1 0 0 5100
2  8 5 0 0 5100
6  10 1 0
6  11 8 0
0

0101000
-77 0 +81 0 *
Wi

0101100
-80 0 -78 0 +76 0 +75 0 *
Fa
0  1e-07 1 0
2  1
0111000
+74 0 *
Ve
1e-07
4700 0 0
0 0

0101101
*
Ed
 1e-07 1 1 0
1  5 0 0 4700
2  9 2 0 0 4700
2  10 5 0 0 4700
6  12 2 0
6  13 8 0
6  14 3 5
6  15 4 6
6  16 5 7
0

0101000
-72 0 +81 0 *
Ve
1e-07
4700 0 3100
0 0

0101101
*
Ed
 1e-07 1 1 0
1  6 0 0 3100
2  11 6 0 0 3100
2  12 2 0 0 3100
6  17 9 0
6  18 2 0
6  19 3 5
6  20 4 6
6  21 5 7
0

0101000
-70 0 +72 0 *
Ed
 1e-07 1 1 0
1  7 0 0 4700
2  13 2 0 0 4700
2  14 3 0 0 4700
6  22 2 0
6  23 6 0
6  24 3 5
6  25 4 6
6  26 5 7
0

0101000
-70 0 +82 0 *
Wi

0101100
-71 4 -69 4 +80 4 +68 4 *
Ve
1e-07
1800 0 200
0 0

0101101
*
Ve
1e-07
1800 0 800
0 0

0101101
*
Ed
 1e-07 1 1 0
1  8 0 0 600
2  15 7 0 0 600
2  16 8 0 0 600
2  17 2 10 0 600
6  27 5 11
6  28 10 11
6  29 11 11
0

0101000
+66 11 -65 12 *
Ve
1e-07
2900 0 200
0 0

0101101
*
Ed
 1e-07 1 1 0
1  9 0 0 1100
2  18 8 0 0 1100
2  19 9 0 0 1100
2  20 2 10 0 1100
6  30 5 11
6  31 12 11
6  32 11 11
0

0101000
+66 11 -63 11 *
Ve
1e-07
2900 0 800
0 0

0101101
*
Ed
 1e-07 1 1 0
1  10 0 0 1100
2  21 8 0 0 1100
2  22 10 0 0 1100
6  33 3 12
6  34 13 12
6  35 14 12
2  23 2 10 0 1100
6  36 4 13
6  37 5 11
6  38 11 11
0

0101000
+65 12 -61 12 *
Ed
 1e-07 1 1 0
1  11 0 0 600
2  24 11 0 0 600
2  25 8 0 0 600
2  26 2 10 0 600
6  39 5 11
6  40 15 11
6  41 11 11
0

0101000
+63 11 -61 12 *
Wi

0101100
-64 9 +62 9 -60 9 +59 9 *
Ve
1e-07
1500 1000 1500
0 0

0101101
*
Ve
1e-07
0 1000 1500
0 0

0101101
*
Ed
 1e-07 1 1 0
1  12 0 0 1500
2  27 12 0 0 1500
2  28 13 0 0 1500
6  42 16 0
6  43 17 0
2  29 2 17 0 1500
6  44 4 18
6  45 5 19
0

0101000
-57 0 +56 0 *
Ve
1e-07
1500 1000 0
0 0

0101101
*
Ed
 1e-07 1 1 0
1  13 0 0 1500
2  30 14 0 0 1500
2  31 12 0 0 1500
6  46 18 0
6  47 16 0
2  32 2 17 0 1500
6  48 4 18
6  49 5 19
0

0101000
-57 0 +54 0 *
Ve
1e-07
0 1000 0
0 0

0101101
*
Ed
 1e-07 1 1 0
1  14 0 0 1500
2  33 12 0 0 1500
2  34 15 0 0 1500
6  50 16 0
6  51 19 0
2  35 2 17 0 1500
6  52 4 18
6  53 5 19
0

0101000
-54 0 +52 0 *
Ed
 1e-07 1 1 0
1  15 0 0 1500
2  36 16 0 0 1500
2  37 12 0 0 1500
6  54 20 0
6  55 16 0
2  38 2 17 0 1500
6  56 4 18
6  57 5 19
0

0101000
-56 0 +52 0 *
Wi

0101100
-55 16 +53 16 +51 16 -50 16 *
Fa
0  1e-07 2 4
2  5
0101000
+67 0 +58 0 +49 0 *
Wi

0101100
-51 0 -53 0 +55 0 +50 0 *
Fa
0  1e-07 12 0
2  16
0111000
+47 0 *
Ve
1e-07
4700 5100 3100
0 0

0101101
*
Ed
 1e-07 1 1 0
1  16 0 0 4700
2  39 4 0 0 4700
2  40 3 0 0 4700
6  58 7 0
6  59 6 0
0

0101000
-45 0 +79 0 *
Ed
 1e-07 1 1 0
1  17 0 0 5100
2  41 6 0 0 5100
2  42 3 0 0 5100
6  60 9 0
6  61 6 0
0

0101000
-45 0 +70 0 *
Wi

0101100
-78 0 -44 0 +43 0 +68 0 *
Fa
0  1e-07 3 0
2  6
0111000
+42 0 *
Ve
1e-07
4700 5100 0
0 0

0101101
*
Ed
 1e-07 1 1 0
1  18 0 0 4700
2  43 4 0 0 4700
2  44 5 0 0 4700
6  62 7 0
6  63 8 0
0

0101000
-40 0 +77 0 *
Ed
 1e-07 1 1 0
1  19 0 0 3100
2  45 6 0 0 3100
2  46 4 0 0 3100
6  64 9 0
6  65 7 0
0

0101000
-45 0 +40 0 *
Wi

0101100
-39 0 -38 0 +44 0 +76 0 *
Fa
0  1e-07 4 0
2  7
0111000
+37 0 *
Ed
 1e-07 1 1 0
1  20 0 0 5100
2  47 6 0 0 5100
2  48 5 0 0 5100
6  66 9 0
6  67 8 0
0

0101000
-40 0 +72 0 *
Wi

0101100
-75 0 -39 0 +35 0 +71 0 *
Fa
0  1e-07 5 0
2  8
0111000
+34 0 *
Wi

0101100
-69 0 -43 0 +38 0 +35 0 *
Fa
0  1e-07 6 0
2  9
0111000
+32 0 *
Ve
1e-07
0 150 600
0 0

0101101
*
Ed
 1e-07 1 1 0
1  21 0 0 150
2  49 7 0 0 150
2  50 10 0 0 150
6  68 21 12
6  69 13 12
6  70 10 11
0

0101000
+65 12 -30 0 *
Ve
1e-07
0 150 0
0 0

0101101
*
Ed
 1e-07 1 1 0
1  22 0 0 600
2  51 7 0 0 600
2  52 17 0 0 600
6  71 22 0
6  72 23 0
6  73 21 12
6  74 10 11
0

0101000
-30 0 +28 0 *
Ed
 1e-07 1 1 0
1  23 0 0 150
2  53 7 0 0 150
2  54 9 0 0 150
6  75 10 11
6  76 12 11
0

0101000
+66 11 -28 0 *
Wi

0101100
-64 9 -29 9 +27 9 +26 9 *
Fa
0  1e-07 7 9
2  10
0101000
+25 0 *
Ve
1e-07
1100 150 600
0 0

0101101
*
Ed
 1e-07 1 1 0
1  24 0 0 1100
2  55 17 0 0 1100
2  56 10 0 0 1100
6  77 23 0
6  78 24 0
6  79 13 12
0

0101000
-23 0 +30 0 *
Ed
 1e-07 1 1 0
1  25 0 0 150
2  57 11 0 0 150
2  58 10 0 0 150
6  80 13 12
6  81 25 12
6  82 15 11
0

0101000
+61 12 -23 0 *
Wi

0101100
-29 8 -22 8 +21 8 +60 8 *
Fa
0  1e-07 10 8
2  13
0111000
+20 0 *
Ve
1e-07
1100 150 0
0 0

0101101
*
Ed
 1e-07 1 1 0
1  26 0 0 600
2  59 11 0 0 600
2  60 17 0 0 600
6  83 26 0
6  84 23 0
6  85 25 12
6  86 15 11
0

0101000
-23 0 +18 0 *
Ed
 1e-07 1 1 0
1  27 0 0 150
2  61 11 0 0 150
2  62 9 0 0 150
6  87 15 11
6  88 12 11
0

0101000
+63 11 -18 0 *
Wi

0101100
-59 9 -21 9 +17 9 +16 9 *
Fa
0  1e-07 11 9
2  15
0101000
+15 0 *
Ed
 1e-07 1 1 0
1  28 0 0 1100
2  63 17 0 0 1100
2  64 9 0 0 1100
6  89 23 0
6  90 27 0
6  91 28 12
6  92 12 11
0

0101000
-18 0 +28 0 *
Wi

0101100
-26 9 -13 9 +16 9 +62 9 *
Fa
0  1e-07 9 9
2  12
0101000
+12 0 *
Wi

0101100
-13 0 -17 0 +22 0 +27 0 *
Fa
0  1e-07 17 0
2  23
0111000
+10 0 *
Sh

0101100
-73 4 -48 0 -46 16 +41 4 +36 4 -33 4 +31 4 +24 0 -19 20 -14 0 
+11 0 -9 9 *
So

0100000
+8 0 *
Wi

0101100
-62 9 -59 9 +60 9 +64 9 *
Fa
0  1e-07 2 4
2  11
0101000
+6 0 *
Sh

0101100
-24 0 +14 0 -5 0 +9 9 -11 0 +19 20 *
So

0100000
+4 0 *
Co

0100000
+7 0 +3 0 *
Co

1100000
+2 0 *

+1 0 